<svg width="27" height="39" viewBox="0 0 27 39" fill="none" xmlns="http://www.w3.org/2000/svg">
<path d="M3.83333 3.83333V34.5H23V3.83333H3.83333ZM1.91667 0H24.9167C25.425 0 25.9125 0.201934 26.272 0.561379C26.6314 0.920823 26.8333 1.40834 26.8333 1.91667V36.4167C26.8333 36.925 26.6314 37.4125 26.272 37.772C25.9125 38.1314 25.425 38.3333 24.9167 38.3333H1.91667C1.40834 38.3333 0.920824 38.1314 0.561379 37.772C0.201934 37.4125 0 36.925 0 36.4167V1.91667C0 1.40834 0.201934 0.920823 0.561379 0.561379C0.920824 0.201934 1.40834 0 1.91667 0ZM13.4167 28.75C13.925 28.75 14.4125 28.9519 14.772 29.3114C15.1314 29.6708 15.3333 30.1583 15.3333 30.6667C15.3333 31.175 15.1314 31.6625 14.772 32.022C14.4125 32.3814 13.925 32.5833 13.4167 32.5833C12.9083 32.5833 12.4208 32.3814 12.0614 32.022C11.7019 31.6625 11.5 31.175 11.5 30.6667C11.5 30.1583 11.7019 29.6708 12.0614 29.3114C12.4208 28.9519 12.9083 28.75 13.4167 28.75Z" fill="#2B2E34"/>
</svg>
