<svg width="44" height="40" viewBox="0 0 44 40" fill="none" xmlns="http://www.w3.org/2000/svg">
<path d="M2.50004 0.5H41.5C42.0747 0.5 42.6258 0.728273 43.0321 1.1346C43.4384 1.54093 43.6667 2.09203 43.6667 2.66667V37.3333C43.6667 37.908 43.4384 38.4591 43.0321 38.8654C42.6258 39.2717 42.0747 39.5 41.5 39.5H2.50004C1.92541 39.5 1.3743 39.2717 0.967976 38.8654C0.561647 38.4591 0.333374 37.908 0.333374 37.3333V2.66667C0.333374 2.09203 0.561647 1.54093 0.967976 1.1346C1.3743 0.728273 1.92541 0.5 2.50004 0.5ZM22.13 19.3132L8.23737 7.51567L5.43154 10.8177L22.1582 25.0202L38.5837 10.8068L35.7497 7.52867L22.1322 19.3132H22.13Z" fill="#2B2E34"/>
</svg>
